<svg xmlns="http://www.w3.org/2000/svg" viewBox="0 0 460 454" width="460" height="454">
  <defs>
    <linearGradient id="periwinkle" x1="100%" y1="0%" x2="0%" y2="100%">
      <stop offset="0%" stop-color="#7E9BEC"/>
      <stop offset="100%" stop-color="#5A3E9E"/>
    </linearGradient>
  </defs>
  <path fill="url(#periwinkle)" fill-rule="evenodd" d="M370.50,220.17 C368.96,220.57 367.77,223.23 366.75,225.85 C365.73,228.46 365.19,232.53 364.38,235.85 C363.56,239.18 362.79,242.52 361.88,245.81 C360.96,249.09 359.90,252.31 358.88,255.55 C357.85,258.79 356.50,262.00 355.75,265.25 C355.00,268.50 354.26,271.81 354.38,275.04 C354.49,278.28 355.39,281.52 356.46,284.65 C357.53,287.79 359.27,290.81 360.79,293.85 C362.30,296.88 363.96,299.86 365.55,302.86 C367.13,305.87 368.71,308.88 370.29,311.89 C371.87,314.89 373.43,317.91 375.04,320.91 C376.64,323.91 378.27,326.89 379.93,329.87 C381.59,332.85 383.34,335.79 384.97,338.77 C386.61,341.76 388.39,344.70 389.75,347.78 C391.11,350.86 392.57,354.06 393.15,357.28 C393.73,360.49 393.95,364.02 393.21,367.05 C392.46,370.07 390.79,373.25 388.67,375.40 C386.54,377.56 383.40,379.32 380.45,379.99 C377.51,380.65 373.95,380.37 370.98,379.41 C368.01,378.45 365.08,376.41 362.62,374.22 C360.16,372.04 358.13,369.12 356.24,366.32 C354.34,363.51 352.79,360.42 351.25,357.40 C349.71,354.37 348.38,351.26 347.00,348.17 C345.62,345.07 344.34,341.94 343.00,338.84 C341.66,335.73 340.33,332.62 338.94,329.53 C337.56,326.44 336.33,323.07 334.68,320.31 C333.03,317.54 331.28,314.46 329.02,312.92 C326.76,311.38 323.89,310.73 321.13,311.09 C318.37,311.44 315.32,313.43 312.44,315.04 C309.55,316.65 306.62,318.82 303.82,320.76 C301.02,322.71 297.81,324.44 295.66,326.70 C293.50,328.95 291.58,331.50 290.88,334.30 C290.19,337.10 290.78,340.39 291.48,343.50 C292.18,346.61 293.79,349.84 295.09,352.96 C296.38,356.08 297.83,359.15 299.24,362.23 C300.65,365.30 302.08,368.38 303.56,371.43 C305.04,374.48 306.53,377.52 308.12,380.52 C309.72,383.53 311.34,386.52 313.12,389.44 C314.91,392.36 316.77,395.27 318.84,398.06 C320.90,400.86 323.14,403.63 325.53,406.21 C327.92,408.78 330.48,411.30 333.15,413.52 C335.82,415.75 338.64,417.80 341.56,419.56 C344.48,421.33 347.54,422.83 350.67,424.11 C353.80,425.39 357.04,426.40 360.36,427.24 C363.68,428.07 367.13,428.72 370.58,429.09 C374.04,429.47 377.62,429.64 381.09,429.47 C384.56,429.31 388.05,428.83 391.40,428.10 C394.74,427.38 398.00,426.37 401.15,425.13 C404.30,423.89 407.36,422.41 410.29,420.66 C413.22,418.92 416.06,416.88 418.72,414.66 C421.38,412.43 423.92,409.90 426.25,407.30 C428.57,404.70 430.74,401.90 432.67,399.04 C434.60,396.19 436.38,393.25 437.83,390.19 C439.29,387.14 440.52,383.98 441.42,380.69 C442.31,377.40 442.89,373.93 443.21,370.48 C443.53,367.02 443.55,363.42 443.32,359.96 C443.09,356.50 442.54,353.04 441.82,349.70 C441.10,346.35 440.12,343.08 439.00,339.88 C437.89,336.68 436.54,333.57 435.13,330.49 C433.73,327.41 432.13,324.41 430.60,321.38 C429.06,318.35 427.51,315.34 425.94,312.32 C424.38,309.31 422.83,306.28 421.22,303.29 C419.60,300.30 417.93,297.33 416.24,294.36 C414.55,291.40 412.81,288.46 411.10,285.51 C409.38,282.55 407.66,279.60 405.96,276.65 C404.25,273.69 402.54,270.74 400.86,267.77 C399.18,264.80 397.51,261.83 395.88,258.85 C394.24,255.86 392.65,252.86 391.04,249.86 C389.44,246.86 387.87,243.85 386.26,240.85 C384.65,237.86 383.11,234.78 381.40,231.88 C379.68,228.97 377.79,225.38 375.97,223.43 C374.15,221.48 372.04,219.76 370.50,220.17 Z M229.08,36.55 C225.60,36.66 222.10,37.08 218.69,37.62 C215.28,38.17 211.89,38.88 208.61,39.79 C205.32,40.71 202.10,41.75 198.99,43.09 C195.88,44.43 192.89,46.03 189.97,47.82 C187.05,49.62 184.23,51.67 181.48,53.85 C178.74,56.03 176.03,58.41 173.49,60.89 C170.95,63.37 168.50,66.02 166.27,68.73 C164.04,71.44 162.02,74.29 160.10,77.15 C158.17,80.02 156.44,82.96 154.72,85.91 C153.00,88.86 151.38,91.85 149.78,94.85 C148.18,97.84 146.65,100.87 145.11,103.89 C143.57,106.91 142.08,109.96 140.52,112.98 C138.97,115.99 137.38,119.00 135.76,121.99 C134.15,124.98 132.45,127.93 130.81,130.92 C129.17,133.90 127.56,136.89 125.95,139.88 C124.33,142.87 122.74,145.88 121.11,148.86 C119.49,151.85 117.83,154.82 116.19,157.81 C114.56,160.79 112.92,163.77 111.30,166.76 C109.69,169.75 108.09,172.75 106.50,175.76 C104.90,178.76 103.33,181.76 101.74,184.77 C100.16,187.77 98.58,190.78 96.99,193.78 C95.39,196.78 93.79,199.78 92.18,202.77 C90.57,205.76 88.93,208.74 87.32,211.74 C85.71,214.73 84.10,217.73 82.51,220.73 C80.92,223.73 79.34,226.74 77.75,229.74 C76.17,232.74 74.58,235.75 73.00,238.75 C71.41,241.76 69.83,244.76 68.24,247.76 C66.66,250.77 65.08,253.78 63.49,256.78 C61.89,259.78 60.25,262.76 58.68,265.77 C57.11,268.78 54.97,272.21 54.07,274.84 C53.17,277.47 52.40,280.30 53.26,281.56 C54.13,282.82 56.70,282.78 59.26,282.40 C61.81,282.02 65.45,280.35 68.60,279.27 C71.76,278.19 74.95,276.91 78.20,275.92 C81.45,274.94 84.78,274.12 88.11,273.34 C91.45,272.57 94.96,272.17 98.23,271.26 C101.50,270.34 104.86,269.48 107.73,267.86 C110.61,266.24 113.20,263.98 115.47,261.53 C117.73,259.08 119.53,256.04 121.33,253.16 C123.13,250.27 124.66,247.22 126.26,244.22 C127.86,241.22 129.38,238.19 130.93,235.17 C132.48,232.15 134.01,229.12 135.57,226.11 C137.13,223.09 138.73,220.10 140.29,217.08 C141.86,214.07 143.41,211.06 144.95,208.03 C146.49,205.01 147.97,201.96 149.52,198.94 C151.08,195.93 152.67,192.93 154.29,189.94 C155.91,186.95 157.61,183.99 159.24,181.01 C160.88,178.02 162.49,175.03 164.09,172.03 C165.69,169.04 167.28,166.03 168.85,163.02 C170.42,160.01 171.94,156.98 173.51,153.97 C175.09,150.96 176.48,147.75 178.30,144.97 C180.13,142.19 182.15,138.98 184.45,137.30 C186.74,135.61 189.89,134.42 192.07,134.89 C194.25,135.36 196.54,137.68 197.50,140.09 C198.47,142.51 198.30,146.24 197.85,149.39 C197.40,152.54 195.99,155.84 194.81,158.99 C193.62,162.14 192.09,165.19 190.74,168.29 C189.38,171.38 187.98,174.47 186.67,177.58 C185.36,180.70 184.14,183.86 182.86,186.99 C181.58,190.12 180.30,193.25 178.99,196.37 C177.68,199.48 176.34,202.59 175.00,205.69 C173.65,208.80 172.29,211.89 170.93,214.99 C169.57,218.09 168.19,221.18 166.84,224.28 C165.50,227.39 164.21,230.51 162.88,233.62 C161.55,236.73 160.22,239.84 158.84,242.93 C157.47,246.02 156.02,249.08 154.62,252.17 C153.23,255.25 151.95,258.39 150.45,261.42 C148.96,264.45 147.62,267.73 145.65,270.34 C143.68,272.94 141.38,275.43 138.63,277.07 C135.88,278.70 132.49,279.46 129.14,280.13 C125.80,280.81 122.10,280.81 118.57,281.12 C115.04,281.44 111.47,281.67 107.95,282.00 C104.43,282.33 100.90,282.65 97.43,283.12 C93.97,283.60 90.52,284.12 87.18,284.88 C83.83,285.63 80.56,286.58 77.35,287.67 C74.14,288.76 71.00,290.01 67.92,291.40 C64.83,292.80 61.81,294.33 58.85,296.02 C55.89,297.72 52.98,299.56 50.17,301.58 C47.36,303.60 44.57,305.78 41.98,308.14 C39.39,310.51 36.86,313.10 34.60,315.78 C32.35,318.45 30.27,321.31 28.43,324.20 C26.59,327.10 25.01,330.11 23.57,333.17 C22.14,336.24 20.88,339.38 19.85,342.61 C18.82,345.85 17.95,349.17 17.38,352.57 C16.80,355.97 16.46,359.53 16.38,363.03 C16.29,366.54 16.45,370.15 16.88,373.60 C17.30,377.05 17.99,380.46 18.95,383.72 C19.92,386.98 21.20,390.11 22.68,393.16 C24.17,396.21 25.93,399.17 27.87,401.99 C29.81,404.81 31.97,407.58 34.33,410.08 C36.69,412.58 39.29,414.93 42.00,417.00 C44.72,419.08 47.63,420.94 50.61,422.55 C53.60,424.16 56.72,425.50 59.90,426.65 C63.08,427.80 66.38,428.76 69.72,429.45 C73.06,430.14 76.52,430.67 79.94,430.79 C83.37,430.90 86.88,430.63 90.27,430.12 C93.65,429.62 97.02,428.74 100.26,427.75 C103.51,426.76 106.68,425.56 109.76,424.16 C112.84,422.76 115.85,421.17 118.75,419.35 C121.65,417.53 124.48,415.49 127.15,413.25 C129.82,411.02 132.38,408.51 134.75,405.93 C137.12,403.35 139.35,400.58 141.38,397.77 C143.41,394.96 145.22,392.04 146.92,389.08 C148.62,386.12 150.08,383.07 151.57,380.03 C153.06,376.98 154.46,373.90 155.88,370.83 C157.29,367.75 158.67,364.67 160.05,361.58 C161.42,358.48 162.70,355.35 164.11,352.28 C165.52,349.20 166.76,345.93 168.51,343.12 C170.26,340.30 172.13,337.39 174.60,335.38 C177.08,333.37 180.14,331.97 183.36,331.07 C186.58,330.18 190.31,330.18 193.90,330.00 C197.48,329.82 201.22,330.00 204.88,330.00 C208.54,330.00 212.21,330.02 215.86,330.00 C219.51,329.98 223.17,329.98 226.79,329.88 C230.41,329.77 234.02,329.65 237.57,329.38 C241.12,329.10 244.63,328.75 248.08,328.25 C251.54,327.75 254.94,327.13 258.29,326.38 C261.63,325.62 264.92,324.72 268.16,323.69 C271.40,322.67 274.56,321.48 277.71,320.24 C280.85,318.99 283.97,317.67 287.03,316.22 C290.09,314.77 293.12,313.25 296.08,311.55 C299.03,309.85 301.93,308.01 304.76,305.99 C307.58,303.98 310.37,301.80 313.03,299.47 C315.70,297.13 318.30,294.57 320.77,291.98 C323.23,289.39 325.60,286.66 327.83,283.92 C330.05,281.18 332.16,278.40 334.09,275.53 C336.02,272.67 337.78,269.74 339.41,266.76 C341.04,263.77 342.50,260.72 343.85,257.61 C345.20,254.51 346.42,251.36 347.50,248.14 C348.58,244.93 349.52,241.66 350.31,238.33 C351.10,234.99 351.76,231.61 352.25,228.15 C352.74,224.69 353.06,221.14 353.25,217.58 C353.44,214.02 353.46,210.34 353.36,206.76 C353.26,203.17 353.03,199.58 352.65,196.07 C352.27,192.57 351.73,189.13 351.08,185.74 C350.44,182.35 349.67,179.00 348.78,175.71 C347.88,172.42 346.86,169.19 345.72,166.00 C344.58,162.81 343.30,159.68 341.95,156.58 C340.60,153.47 339.15,150.42 337.63,147.38 C336.12,144.35 334.49,141.36 332.87,138.37 C331.26,135.38 329.57,132.42 327.94,129.44 C326.30,126.45 324.69,123.46 323.09,120.46 C321.49,117.46 319.93,114.45 318.33,111.45 C316.73,108.45 315.11,105.46 313.48,102.48 C311.85,99.49 310.19,96.52 308.54,93.54 C306.89,90.57 305.27,87.57 303.56,84.62 C301.85,81.67 300.17,78.70 298.28,75.83 C296.38,72.95 294.39,70.09 292.19,67.37 C289.99,64.65 287.58,61.96 285.05,59.49 C282.53,57.02 279.82,54.66 277.06,52.54 C274.29,50.42 271.41,48.51 268.46,46.79 C265.51,45.08 262.48,43.55 259.36,42.24 C256.25,40.92 253.05,39.79 249.76,38.92 C246.46,38.04 243.02,37.37 239.58,36.97 C236.13,36.58 232.56,36.44 229.08,36.55 Z M103.51,331.73 C106.57,331.83 109.93,332.47 111.68,334.11 C113.43,335.75 114.10,338.74 114.01,341.57 C113.93,344.40 112.42,347.94 111.15,351.06 C109.88,354.18 108.13,357.30 106.38,360.30 C104.62,363.30 102.83,366.40 100.65,369.07 C98.46,371.74 96.02,374.51 93.26,376.32 C90.51,378.13 87.20,379.64 84.11,379.92 C81.02,380.20 77.42,379.50 74.72,378.01 C72.02,376.52 69.39,373.75 67.92,370.98 C66.45,368.21 65.75,364.59 65.90,361.40 C66.06,358.21 67.28,354.79 68.85,351.84 C70.42,348.89 72.84,346.07 75.33,343.68 C77.82,341.30 80.78,339.23 83.78,337.53 C86.77,335.83 90.03,334.47 93.32,333.50 C96.61,332.53 100.45,331.63 103.51,331.73 Z M231.28,86.40 C232.79,85.31 236.08,85.29 238.82,86.00 C241.55,86.71 244.96,88.67 247.67,90.64 C250.38,92.61 252.83,95.22 255.07,97.82 C257.30,100.41 259.22,103.34 261.08,106.21 C262.95,109.07 264.59,112.06 266.27,115.02 C267.94,117.98 269.51,120.97 271.11,123.96 C272.72,126.95 274.30,129.95 275.88,132.95 C277.46,135.94 279.01,138.95 280.60,141.94 C282.19,144.94 283.80,147.92 285.41,150.91 C287.02,153.89 288.66,156.86 290.24,159.86 C291.82,162.86 293.40,165.86 294.89,168.89 C296.38,171.92 297.87,174.96 299.20,178.06 C300.53,181.16 301.81,184.28 302.86,187.50 C303.91,190.71 304.86,193.98 305.50,197.36 C306.14,200.74 306.57,204.28 306.72,207.79 C306.88,211.30 306.80,214.95 306.45,218.42 C306.09,221.89 305.49,225.33 304.60,228.61 C303.71,231.89 302.52,235.05 301.10,238.11 C299.68,241.18 297.97,244.13 296.08,246.99 C294.19,249.85 292.05,252.64 289.75,255.25 C287.46,257.87 284.94,260.42 282.32,262.69 C279.69,264.97 276.89,267.07 274.01,268.91 C271.13,270.74 268.11,272.29 265.04,273.70 C261.98,275.12 258.83,276.33 255.61,277.38 C252.39,278.42 249.12,279.33 245.74,280.00 C242.37,280.67 238.88,281.06 235.36,281.38 C231.83,281.69 228.20,281.81 224.61,281.88 C221.02,281.94 217.10,282.21 213.81,281.75 C210.52,281.29 206.97,280.69 204.88,279.09 C202.80,277.49 201.59,274.85 201.29,272.15 C201.00,269.45 202.17,266.01 203.11,262.91 C204.06,259.81 205.67,256.66 206.98,253.55 C208.29,250.45 209.66,247.36 210.99,244.26 C212.32,241.16 213.63,238.05 214.97,234.95 C216.31,231.86 217.49,228.57 219.05,225.69 C220.61,222.81 222.33,219.43 224.32,217.68 C226.32,215.93 228.89,214.72 231.03,215.17 C233.17,215.63 235.36,218.04 237.16,220.40 C238.96,222.77 240.36,226.32 241.83,229.35 C243.30,232.38 244.58,235.52 245.96,238.60 C247.34,241.67 248.51,245.00 250.12,247.83 C251.73,250.65 253.40,253.81 255.65,255.55 C257.89,257.30 260.79,258.40 263.57,258.29 C266.35,258.19 269.56,256.62 272.33,254.92 C275.09,253.22 277.84,250.61 280.16,248.09 C282.48,245.57 284.68,242.75 286.23,239.80 C287.78,236.85 288.98,233.62 289.48,230.40 C289.98,227.18 289.77,223.75 289.25,220.49 C288.73,217.22 287.51,213.99 286.37,210.83 C285.23,207.66 283.78,204.60 282.43,201.50 C281.08,198.41 279.64,195.36 278.27,192.27 C276.90,189.19 275.54,186.10 274.22,182.99 C272.90,179.89 271.67,176.75 270.35,173.64 C269.03,170.54 267.70,167.44 266.30,164.37 C264.90,161.29 263.41,158.26 261.96,155.21 C260.52,152.16 259.04,149.12 257.62,146.05 C256.21,142.98 254.89,139.88 253.50,136.80 C252.11,133.73 250.76,130.64 249.27,127.60 C247.79,124.56 246.21,121.56 244.58,118.59 C242.95,115.61 241.27,112.66 239.49,109.74 C237.72,106.82 235.56,103.95 233.94,101.09 C232.32,98.22 230.20,95.00 229.76,92.56 C229.32,90.11 229.77,87.49 231.28,86.40 Z"/>
</svg>